# MagicaVoxel @ Ephtracy

# group
o jaw

# material
mtllib head-0-jaw.mtl
usemtl palette

# normals
vn -1 0 0
vn 1 0 0
vn 0 0 1
vn 0 0 -1
vn 0 -1 0
vn 0 1 0

# texcoords
vt 0.443359 0.5
vt 0.853516 0.5

# verts
v -0.4 1.1 0.7
v -0.4 1.1 0
v -0.4 1.2 0
v -0.4 1.2 -0.1
v -0.4 1.3 0.7
v -0.4 1.3 0.5
v -0.4 1.4 0.5
v -0.4 1.4 0.2
v -0.4 1.5 0.2
v -0.4 1.5 -0.1
v -0.3 1 0.6
v -0.3 1 0.1
v -0.3 1.1 0.8
v -0.3 1.1 0.7
v -0.3 1.1 0.6
v -0.3 1.1 0.1
v -0.3 1.1 0
v -0.3 1.1 -0.1
v -0.3 1.2 0
v -0.3 1.2 -0.1
v -0.3 1.2 -0.2
v -0.3 1.3 0.8
v -0.3 1.3 0.7
v -0.3 1.5 -0.1
v -0.3 1.5 -0.2
v -0.2 1 0.8
v -0.2 1 0.6
v -0.2 1 0.1
v -0.2 1 0
v -0.2 1.1 0.9
v -0.2 1.1 0.8
v -0.2 1.1 0.6
v -0.2 1.1 0.1
v -0.2 1.1 0
v -0.2 1.3 0.9
v -0.2 1.3 0.8
v -0.1 0.9 0.6
v -0.1 0.9 0.1
v -0.1 1 0.6
v -0.1 1 0.1
v 0.1 1.4 0.1
v 0.1 1.4 0
v 0.1 1.5 0.1
v 0.1 1.5 0
v 0.2 1.3 0.4
v 0.2 1.3 0.3
v 0.2 1.4 0.4
v 0.2 1.4 0.3
v 0.2 1.4 0.2
v 0.2 1.4 0.1
v 0.2 1.5 0.2
v 0.2 1.5 0.1
v 0.3 1.3 0.5
v 0.3 1.3 0.4
v 0.3 1.4 0.5
v 0.3 1.4 0.4
v -0.3 1.3 0.5
v -0.3 1.3 0.4
v -0.3 1.4 0.5
v -0.3 1.4 0.4
v -0.2 1.3 0.4
v -0.2 1.3 0.3
v -0.2 1.4 0.4
v -0.2 1.4 0.3
v -0.2 1.4 0.2
v -0.2 1.4 0.1
v -0.2 1.5 0.2
v -0.2 1.5 0.1
v -0.1 1.4 0.1
v -0.1 1.4 0
v -0.1 1.5 0.1
v -0.1 1.5 0
v 0.1 0.9 0.6
v 0.1 0.9 0.1
v 0.1 1 0.6
v 0.1 1 0.1
v 0.2 1 0.8
v 0.2 1 0.6
v 0.2 1 0.1
v 0.2 1 0
v 0.2 1.1 0.9
v 0.2 1.1 0.8
v 0.2 1.1 0.6
v 0.2 1.1 0.1
v 0.2 1.1 0
v 0.2 1.3 0.9
v 0.2 1.3 0.8
v 0.3 1 0.6
v 0.3 1 0.1
v 0.3 1.1 0.8
v 0.3 1.1 0.7
v 0.3 1.1 0.6
v 0.3 1.1 0.1
v 0.3 1.1 0
v 0.3 1.1 -0.1
v 0.3 1.2 0
v 0.3 1.2 -0.1
v 0.3 1.2 -0.2
v 0.3 1.3 0.8
v 0.3 1.3 0.7
v 0.3 1.5 -0.1
v 0.3 1.5 -0.2
v 0.4 1.1 0.7
v 0.4 1.1 0
v 0.4 1.2 0
v 0.4 1.2 -0.1
v 0.4 1.3 0.7
v 0.4 1.3 0.5
v 0.4 1.4 0.5
v 0.4 1.4 0.2
v 0.4 1.5 0.2
v 0.4 1.5 -0.1
v -0.2 1.1 0.9
v -0.2 1.3 0.9
v 0.2 1.1 0.9
v 0.2 1.3 0.9
v -0.3 1.1 0.8
v -0.3 1.3 0.8
v -0.2 1 0.8
v -0.2 1.1 0.8
v -0.2 1.3 0.8
v 0.2 1 0.8
v 0.2 1.1 0.8
v 0.2 1.3 0.8
v 0.3 1.1 0.8
v 0.3 1.3 0.8
v -0.4 1.1 0.7
v -0.4 1.3 0.7
v -0.3 1.1 0.7
v -0.3 1.3 0.7
v 0.3 1.1 0.7
v 0.3 1.3 0.7
v 0.4 1.1 0.7
v 0.4 1.3 0.7
v -0.3 1 0.6
v -0.3 1.1 0.6
v -0.2 1 0.6
v -0.2 1.1 0.6
v -0.1 0.9 0.6
v -0.1 1 0.6
v 0.1 0.9 0.6
v 0.1 1 0.6
v 0.2 1 0.6
v 0.2 1.1 0.6
v 0.3 1 0.6
v 0.3 1.1 0.6
v -0.4 1.3 0.5
v -0.4 1.4 0.5
v -0.3 1.3 0.5
v -0.3 1.4 0.5
v 0.3 1.3 0.5
v 0.3 1.4 0.5
v 0.4 1.3 0.5
v 0.4 1.4 0.5
v -0.3 1.3 0.4
v -0.3 1.4 0.4
v -0.2 1.3 0.4
v -0.2 1.4 0.4
v 0.2 1.3 0.4
v 0.2 1.4 0.4
v 0.3 1.3 0.4
v 0.3 1.4 0.4
v -0.2 1.3 0.3
v -0.2 1.4 0.3
v 0.2 1.3 0.3
v 0.2 1.4 0.3
v -0.4 1.4 0.2
v -0.4 1.5 0.2
v -0.3 1.4 0.2
v -0.3 1.5 0.2
v -0.2 1.4 0.2
v -0.2 1.5 0.2
v 0.2 1.4 0.2
v 0.2 1.5 0.2
v 0.3 1.4 0.2
v 0.3 1.5 0.2
v 0.4 1.4 0.2
v 0.4 1.5 0.2
v -0.2 1.4 0.1
v -0.2 1.5 0.1
v -0.1 1.4 0.1
v -0.1 1.5 0.1
v 0.1 1.4 0.1
v 0.1 1.5 0.1
v 0.2 1.4 0.1
v 0.2 1.5 0.1
v -0.1 1.4 0
v -0.1 1.5 0
v 0.1 1.4 0
v 0.1 1.5 0
v -0.3 1 0.1
v -0.3 1.1 0.1
v -0.2 1 0.1
v -0.2 1.1 0.1
v -0.1 0.9 0.1
v -0.1 1 0.1
v 0.1 0.9 0.1
v 0.1 1 0.1
v 0.2 1 0.1
v 0.2 1.1 0.1
v 0.3 1 0.1
v 0.3 1.1 0.1
v -0.4 1.1 0
v -0.4 1.2 0
v -0.3 1.1 0
v -0.3 1.2 0
v -0.2 1 0
v -0.2 1.1 0
v 0.2 1 0
v 0.2 1.1 0
v 0.3 1.1 0
v 0.3 1.2 0
v 0.4 1.1 0
v 0.4 1.2 0
v -0.4 1.2 -0.1
v -0.4 1.5 -0.1
v -0.3 1.1 -0.1
v -0.3 1.2 -0.1
v -0.3 1.5 -0.1
v 0.3 1.1 -0.1
v 0.3 1.2 -0.1
v 0.3 1.5 -0.1
v 0.4 1.2 -0.1
v 0.4 1.5 -0.1
v -0.3 1.2 -0.2
v -0.3 1.5 -0.2
v 0.3 1.2 -0.2
v 0.3 1.5 -0.2
v -0.1 0.9 0.6
v 0.1 0.9 0.6
v -0.1 0.9 0.1
v 0.1 0.9 0.1
v -0.2 1 0.8
v 0.2 1 0.8
v -0.3 1 0.6
v -0.2 1 0.6
v -0.1 1 0.6
v 0.1 1 0.6
v 0.2 1 0.6
v 0.3 1 0.6
v -0.3 1 0.1
v -0.2 1 0.1
v -0.1 1 0.1
v 0.1 1 0.1
v 0.2 1 0.1
v 0.3 1 0.1
v -0.2 1 0
v 0.2 1 0
v -0.2 1.1 0.9
v 0.2 1.1 0.9
v -0.3 1.1 0.8
v -0.2 1.1 0.8
v 0.2 1.1 0.8
v 0.3 1.1 0.8
v -0.4 1.1 0.7
v -0.3 1.1 0.7
v 0.3 1.1 0.7
v 0.4 1.1 0.7
v -0.3 1.1 0.6
v -0.2 1.1 0.6
v 0.2 1.1 0.6
v 0.3 1.1 0.6
v -0.3 1.1 0.1
v -0.2 1.1 0.1
v 0.2 1.1 0.1
v 0.3 1.1 0.1
v -0.4 1.1 0
v -0.3 1.1 0
v -0.2 1.1 0
v 0.2 1.1 0
v 0.3 1.1 0
v 0.4 1.1 0
v -0.3 1.1 -0.1
v 0.3 1.1 -0.1
v -0.4 1.2 0
v -0.3 1.2 0
v 0.3 1.2 0
v 0.4 1.2 0
v -0.4 1.2 -0.1
v -0.3 1.2 -0.1
v 0.3 1.2 -0.1
v 0.4 1.2 -0.1
v -0.3 1.2 -0.2
v 0.3 1.2 -0.2
v -0.2 1.3 0.9
v 0.2 1.3 0.9
v -0.3 1.3 0.8
v -0.2 1.3 0.8
v 0.2 1.3 0.8
v 0.3 1.3 0.8
v -0.4 1.3 0.7
v -0.3 1.3 0.7
v -0.2 1.3 0.7
v 0.2 1.3 0.7
v 0.3 1.3 0.7
v 0.4 1.3 0.7
v -0.4 1.3 0.5
v -0.3 1.3 0.5
v 0.3 1.3 0.5
v 0.4 1.3 0.5
v -0.3 1.3 0.4
v -0.2 1.3 0.4
v 0.2 1.3 0.4
v 0.3 1.3 0.4
v -0.2 1.3 0.3
v 0.2 1.3 0.3
v -0.4 1.4 0.5
v -0.3 1.4 0.5
v 0.3 1.4 0.5
v 0.4 1.4 0.5
v -0.3 1.4 0.4
v -0.2 1.4 0.4
v 0.2 1.4 0.4
v 0.3 1.4 0.4
v -0.2 1.4 0.3
v 0.2 1.4 0.3
v -0.4 1.4 0.2
v -0.3 1.4 0.2
v -0.2 1.4 0.2
v 0.2 1.4 0.2
v 0.3 1.4 0.2
v 0.4 1.4 0.2
v -0.2 1.4 0.1
v -0.1 1.4 0.1
v 0.1 1.4 0.1
v 0.2 1.4 0.1
v -0.1 1.4 0
v 0.1 1.4 0
v -0.4 1.5 0.2
v -0.3 1.5 0.2
v -0.2 1.5 0.2
v 0.2 1.5 0.2
v 0.3 1.5 0.2
v 0.4 1.5 0.2
v -0.2 1.5 0.1
v -0.1 1.5 0.1
v 0.1 1.5 0.1
v 0.2 1.5 0.1
v -0.1 1.5 0
v 0.1 1.5 0
v -0.4 1.5 -0.1
v -0.3 1.5 -0.1
v 0.3 1.5 -0.1
v 0.4 1.5 -0.1
v -0.3 1.5 -0.2
v 0.3 1.5 -0.2

# faces
f 3/1/1 2/1/1 1/1/1
f 5/1/1 3/1/1 1/1/1
f 5/1/1 4/1/1 3/1/1
f 6/1/1 4/1/1 5/1/1
f 7/1/1 4/1/1 6/1/1
f 8/1/1 4/1/1 7/1/1
f 9/1/1 4/1/1 8/1/1
f 10/1/1 4/1/1 9/1/1
f 15/1/1 12/1/1 11/1/1
f 16/1/1 12/1/1 15/1/1
f 19/1/1 18/1/1 17/1/1
f 20/1/1 18/1/1 19/1/1
f 22/1/1 14/1/1 13/1/1
f 23/1/1 14/1/1 22/1/1
f 24/1/1 21/1/1 20/1/1
f 25/1/1 21/1/1 24/1/1
f 31/1/1 27/1/1 26/1/1
f 32/1/1 27/1/1 31/1/1
f 33/1/1 29/1/1 28/1/1
f 34/1/1 29/1/1 33/1/1
f 35/1/1 31/1/1 30/1/1
f 36/1/1 31/1/1 35/1/1
f 39/1/1 38/1/1 37/1/1
f 40/1/1 38/1/1 39/1/1
f 43/2/1 42/2/1 41/2/1
f 44/2/1 42/2/1 43/2/1
f 47/2/1 46/2/1 45/2/1
f 48/2/1 46/2/1 47/2/1
f 51/2/1 50/2/1 49/2/1
f 52/2/1 50/2/1 51/2/1
f 55/1/1 54/1/1 53/1/1
f 56/1/1 54/1/1 55/1/1
f 57/1/2 58/1/2 59/1/2
f 59/1/2 58/1/2 60/1/2
f 61/2/2 62/2/2 63/2/2
f 63/2/2 62/2/2 64/2/2
f 65/2/2 66/2/2 67/2/2
f 67/2/2 66/2/2 68/2/2
f 69/2/2 70/2/2 71/2/2
f 71/2/2 70/2/2 72/2/2
f 73/1/2 74/1/2 75/1/2
f 75/1/2 74/1/2 76/1/2
f 77/1/2 78/1/2 82/1/2
f 82/1/2 78/1/2 83/1/2
f 79/1/2 80/1/2 84/1/2
f 84/1/2 80/1/2 85/1/2
f 81/1/2 82/1/2 86/1/2
f 86/1/2 82/1/2 87/1/2
f 88/1/2 89/1/2 92/1/2
f 92/1/2 89/1/2 93/1/2
f 94/1/2 95/1/2 96/1/2
f 96/1/2 95/1/2 97/1/2
f 90/1/2 91/1/2 99/1/2
f 99/1/2 91/1/2 100/1/2
f 97/1/2 98/1/2 101/1/2
f 101/1/2 98/1/2 102/1/2
f 103/1/2 104/1/2 105/1/2
f 103/1/2 105/1/2 107/1/2
f 105/1/2 106/1/2 107/1/2
f 107/1/2 106/1/2 108/1/2
f 108/1/2 106/1/2 109/1/2
f 109/1/2 106/1/2 110/1/2
f 110/1/2 106/1/2 111/1/2
f 111/1/2 106/1/2 112/1/2
f 115/1/3 114/1/3 113/1/3
f 116/1/3 114/1/3 115/1/3
f 120/1/3 118/1/3 117/1/3
f 121/1/3 118/1/3 120/1/3
f 122/1/3 120/1/3 119/1/3
f 123/1/3 120/1/3 122/1/3
f 125/1/3 124/1/3 123/1/3
f 126/1/3 124/1/3 125/1/3
f 129/1/3 128/1/3 127/1/3
f 130/1/3 128/1/3 129/1/3
f 133/1/3 132/1/3 131/1/3
f 134/1/3 132/1/3 133/1/3
f 137/1/3 136/1/3 135/1/3
f 138/1/3 136/1/3 137/1/3
f 141/1/3 140/1/3 139/1/3
f 142/1/3 140/1/3 141/1/3
f 145/1/3 144/1/3 143/1/3
f 146/1/3 144/1/3 145/1/3
f 149/1/3 148/1/3 147/1/3
f 150/1/3 148/1/3 149/1/3
f 153/1/3 152/1/3 151/1/3
f 154/1/3 152/1/3 153/1/3
f 157/2/3 156/2/3 155/2/3
f 158/2/3 156/2/3 157/2/3
f 161/2/3 160/2/3 159/2/3
f 162/2/3 160/2/3 161/2/3
f 165/2/3 164/2/3 163/2/3
f 166/2/3 164/2/3 165/2/3
f 169/1/3 168/1/3 167/1/3
f 170/1/3 168/1/3 169/1/3
f 171/2/3 170/2/3 169/2/3
f 172/2/3 170/2/3 171/2/3
f 175/2/3 174/2/3 173/2/3
f 176/2/3 174/2/3 175/2/3
f 177/1/3 176/1/3 175/1/3
f 178/1/3 176/1/3 177/1/3
f 181/2/3 180/2/3 179/2/3
f 182/2/3 180/2/3 181/2/3
f 185/2/3 184/2/3 183/2/3
f 186/2/3 184/2/3 185/2/3
f 189/2/3 188/2/3 187/2/3
f 190/2/3 188/2/3 189/2/3
f 191/1/4 192/1/4 193/1/4
f 193/1/4 192/1/4 194/1/4
f 195/1/4 196/1/4 197/1/4
f 197/1/4 196/1/4 198/1/4
f 199/1/4 200/1/4 201/1/4
f 201/1/4 200/1/4 202/1/4
f 203/1/4 204/1/4 205/1/4
f 205/1/4 204/1/4 206/1/4
f 207/1/4 208/1/4 209/1/4
f 209/1/4 208/1/4 210/1/4
f 211/1/4 212/1/4 213/1/4
f 213/1/4 212/1/4 214/1/4
f 215/1/4 216/1/4 218/1/4
f 218/1/4 216/1/4 219/1/4
f 217/1/4 218/1/4 220/1/4
f 220/1/4 218/1/4 221/1/4
f 221/1/4 222/1/4 223/1/4
f 223/1/4 222/1/4 224/1/4
f 225/1/4 226/1/4 227/1/4
f 227/1/4 226/1/4 228/1/4
f 231/1/5 230/1/5 229/1/5
f 232/1/5 230/1/5 231/1/5
f 236/1/5 234/1/5 233/1/5
f 237/1/5 234/1/5 236/1/5
f 238/1/5 234/1/5 237/1/5
f 239/1/5 234/1/5 238/1/5
f 241/1/5 236/1/5 235/1/5
f 241/1/5 237/1/5 236/1/5
f 242/1/5 237/1/5 241/1/5
f 243/1/5 237/1/5 242/1/5
f 244/1/5 240/1/5 239/1/5
f 244/1/5 239/1/5 238/1/5
f 245/1/5 240/1/5 244/1/5
f 246/1/5 240/1/5 245/1/5
f 247/1/5 243/1/5 242/1/5
f 247/1/5 245/1/5 244/1/5
f 247/1/5 244/1/5 243/1/5
f 248/1/5 245/1/5 247/1/5
f 252/1/5 250/1/5 249/1/5
f 253/1/5 250/1/5 252/1/5
f 256/1/5 252/1/5 251/1/5
f 257/1/5 254/1/5 253/1/5
f 259/1/5 256/1/5 255/1/5
f 259/1/5 252/1/5 256/1/5
f 260/1/5 252/1/5 259/1/5
f 261/1/5 258/1/5 257/1/5
f 261/1/5 257/1/5 253/1/5
f 262/1/5 258/1/5 261/1/5
f 263/1/5 259/1/5 255/1/5
f 266/1/5 258/1/5 262/1/5
f 267/1/5 264/1/5 263/1/5
f 267/1/5 263/1/5 255/1/5
f 268/1/5 264/1/5 267/1/5
f 269/1/5 264/1/5 268/1/5
f 270/1/5 266/1/5 265/1/5
f 271/1/5 258/1/5 266/1/5
f 271/1/5 266/1/5 270/1/5
f 272/1/5 258/1/5 271/1/5
f 273/1/5 269/1/5 268/1/5
f 273/1/5 270/1/5 269/1/5
f 273/1/5 271/1/5 270/1/5
f 274/1/5 271/1/5 273/1/5
f 279/1/5 276/1/5 275/1/5
f 280/1/5 276/1/5 279/1/5
f 281/1/5 278/1/5 277/1/5
f 282/1/5 278/1/5 281/1/5
f 283/1/5 281/1/5 280/1/5
f 284/1/5 281/1/5 283/1/5
f 285/1/6 286/1/6 288/1/6
f 288/1/6 286/1/6 289/1/6
f 287/1/6 288/1/6 292/1/6
f 288/2/6 289/2/6 293/2/6
f 292/1/6 288/1/6 293/1/6
f 289/1/6 290/1/6 294/1/6
f 293/2/6 289/2/6 294/2/6
f 294/1/6 290/1/6 295/1/6
f 291/1/6 292/1/6 297/1/6
f 292/2/6 293/2/6 298/2/6
f 297/1/6 292/1/6 298/1/6
f 293/2/6 294/2/6 298/2/6
f 294/2/6 295/2/6 298/2/6
f 295/1/6 296/1/6 299/1/6
f 298/2/6 295/2/6 299/2/6
f 299/1/6 296/1/6 300/1/6
f 298/2/6 299/2/6 301/2/6
f 301/2/6 299/2/6 302/2/6
f 302/2/6 299/2/6 303/2/6
f 303/2/6 299/2/6 304/2/6
f 302/2/6 303/2/6 305/2/6
f 305/2/6 303/2/6 306/2/6
f 307/1/6 308/1/6 311/1/6
f 309/1/6 310/1/6 314/1/6
f 311/2/6 312/2/6 315/2/6
f 313/2/6 314/2/6 316/2/6
f 307/1/6 311/1/6 317/1/6
f 311/2/6 315/2/6 318/2/6
f 317/1/6 311/1/6 318/1/6
f 315/2/6 316/2/6 318/2/6
f 318/2/6 316/2/6 319/2/6
f 316/2/6 314/2/6 320/2/6
f 319/2/6 316/2/6 320/2/6
f 314/1/6 310/1/6 321/1/6
f 320/2/6 314/2/6 321/2/6
f 321/1/6 310/1/6 322/1/6
f 319/2/6 320/2/6 323/2/6
f 323/2/6 320/2/6 324/2/6
f 324/2/6 320/2/6 325/2/6
f 325/2/6 320/2/6 326/2/6
f 324/2/6 325/2/6 327/2/6
f 327/2/6 325/2/6 328/2/6
f 330/2/6 331/2/6 335/2/6
f 332/2/6 333/2/6 338/2/6
f 335/2/6 336/2/6 339/2/6
f 337/2/6 338/2/6 340/2/6
f 329/1/6 330/1/6 341/1/6
f 339/2/6 340/2/6 342/2/6
f 341/1/6 330/1/6 342/1/6
f 335/2/6 339/2/6 342/2/6
f 330/2/6 335/2/6 342/2/6
f 333/1/6 334/1/6 343/1/6
f 342/2/6 340/2/6 343/2/6
f 340/2/6 338/2/6 343/2/6
f 338/2/6 333/2/6 343/2/6
f 343/1/6 334/1/6 344/1/6
f 342/1/6 343/1/6 345/1/6
f 345/1/6 343/1/6 346/1/6
